<svg xmlns="http://www.w3.org/2000/svg" xmlns:xlink="http://www.w3.org/1999/xlink">
  <defs>
    <path id="a" d="M0 .877v25.416h22.036V.877z"/>
    <path id="c" d="M12.004 39H23.02V.877H.988V39h11.016z"/>
    <path id="e" d="M22.02 19.231V.169H.011v19.062H22.02z"/>
    <path id="g" d="M11.005 20H0V.938h22.01V20H11.006z"/>
  </defs>
  <g fill="none" fill-rule="evenodd">
    <g transform="translate(0 11.831)">
      <mask id="b" fill="#fff">
        <use xlink:href="#a"/>
      </mask>
      <path d="M22.01 26.293l.026-12.68C11.015 7.25 10.994 7.286 0 .877v12.708l22.01 12.708z" fill="#0088A3" mask="url(#b)"/>
    </g>
    <g transform="translate(21 11.831)">
      <mask id="d" fill="#fff">
        <use xlink:href="#c"/>
      </mask>
      <path fill="#4CBDD4" mask="url(#d)" d="M1.01 26.293l11.006-6.355L.988 13.585 1.01.877l22.01 12.708v12.708L1.01 39z"/>
    </g>
    <g transform="translate(22 -.169)">
      <mask id="f" fill="#fff">
        <use xlink:href="#e"/>
      </mask>
      <path fill="#005C7A" mask="url(#f)" d="M.01.169v12.734l11.006 6.328 11.005-6.354z"/>
    </g>
    <path fill="#A7D8E1" d="M0 12.708l11.005 6.354 11.006-6.328V0z"/>
    <g transform="translate(0 30.831)">
      <mask id="h" fill="#fff">
        <use xlink:href="#g"/>
      </mask>
      <path fill="#005C7A" mask="url(#h)" d="M22.01 7.293L11.006.938 0 7.293 22.01 20z"/>
    </g>
  </g>
</svg>